<?xml version="1.0" standalone="no"?><!DOCTYPE svg PUBLIC "-//W3C//DTD SVG 1.1//EN" "http://www.w3.org/Graphics/SVG/1.1/DTD/svg11.dtd"><svg t="1731031452961" class="icon" viewBox="0 0 1024 1024" version="1.1" xmlns="http://www.w3.org/2000/svg" p-id="17079" xmlns:xlink="http://www.w3.org/1999/xlink" width="64" height="64"><path d="M896 608a16 16 0 0 1-16-16c0-202.912-165.088-368-368-368S144 389.088 144 592a16 16 0 0 1-32 0c0-220.56 179.44-400 400-400s400 179.44 400 400a16 16 0 0 1-16 16z" fill="#1D1D1D" p-id="17080"></path><path d="M285.824 381.84a16 16 0 0 1-11.312-27.312 338.64 338.64 0 0 1 77.44-57.904 336.08 336.08 0 0 1 60.24-25.488 16 16 0 1 1 9.52 30.56 302.24 302.24 0 0 0-79.552 38.288 310.08 310.08 0 0 0-45.024 37.168 15.952 15.952 0 0 1-11.312 4.688zM466.592 291.2a16 16 0 0 1-2.24-31.84c4.416-0.624 8.88-1.168 13.376-1.632a16 16 0 0 1 3.2 31.84c-4.032 0.416-8.064 0.912-12.048 1.472-0.784 0.112-1.536 0.16-2.288 0.16zM512 160a16 16 0 0 1-16-16V96a16 16 0 0 1 32 0v48a16 16 0 0 1-16 16zM828.784 291.216a16 16 0 0 1-11.312-27.312l33.936-33.936a16 16 0 1 1 22.624 22.624l-33.936 33.936a15.952 15.952 0 0 1-11.312 4.688zM195.216 291.216a15.952 15.952 0 0 1-11.312-4.688l-33.936-33.936a16 16 0 1 1 22.624-22.624l33.936 33.936a16 16 0 0 1-11.312 27.312zM683.44 194.112a16 16 0 0 1-14.784-22.128l18.368-44.352a15.984 15.984 0 1 1 29.568 12.256l-18.368 44.336c-2.56 6.16-8.512 9.888-14.784 9.888zM98.08 436.56a16 16 0 0 1-6.096-1.216L47.632 416.96a16 16 0 1 1 12.256-29.568l44.336 18.368a16 16 0 0 1-6.128 30.784zM925.92 436.56a16.016 16.016 0 0 1-6.144-30.784l44.336-18.368a16 16 0 0 1 12.256 29.568l-44.352 18.352a16 16 0 0 1-6.112 1.232zM340.56 194.112c-6.272 0-12.224-3.728-14.784-9.888l-18.368-44.336a16 16 0 1 1 29.568-12.256l18.352 44.352a16 16 0 0 1-14.768 22.128zM601.344 168.992a16 16 0 0 1-15.696-19.2l9.552-47.04a16 16 0 0 1 31.36 6.368l-9.568 47.056a16 16 0 0 1-15.648 12.816zM73.008 518.672c-1.056 0-2.128-0.096-3.2-0.32l-47.04-9.552a16 16 0 0 1 6.368-31.36l47.04 9.552a16 16 0 0 1-3.168 31.68zM885.6 360.736a15.984 15.984 0 0 1-8.848-29.344l40.032-26.496a16 16 0 1 1 17.648 26.688L894.4 358.08a15.936 15.936 0 0 1-8.8 2.656zM264.752 234.416a15.984 15.984 0 0 1-13.36-7.168l-26.496-40.032a16 16 0 0 1 26.688-17.648L278.08 209.6a16 16 0 0 1-13.328 24.816zM762.496 236.592a16 16 0 0 1-13.248-24.96l26.848-39.776a16 16 0 1 1 26.528 17.888l-26.848 39.792a15.984 15.984 0 0 1-13.28 7.056zM140.576 357.488a15.904 15.904 0 0 1-8.928-2.736l-39.792-26.848a16 16 0 0 1 17.888-26.528l39.792 26.848a16 16 0 0 1-8.96 29.264zM951.744 522.512a16 16 0 0 1-3.04-31.696l47.12-9.152a15.92 15.92 0 0 1 18.768 12.64 16 16 0 0 1-12.64 18.752l-47.136 9.168a15.904 15.904 0 0 1-3.072 0.288zM426.496 168.224a16 16 0 0 1-15.68-12.944l-9.152-47.104a16 16 0 1 1 31.392-6.112l9.168 47.104a16 16 0 0 1-15.728 19.056zM1008 608H16a16 16 0 0 1 0-32h992a16 16 0 0 1 0 32zM858.56 736c-23.6 0-36.288-11.696-45.552-20.24-7.968-7.328-12.768-11.76-23.872-11.76-11.088 0-15.888 4.432-23.84 11.76-9.28 8.544-21.952 20.24-45.536 20.24s-36.272-11.696-45.52-20.24c-7.936-7.344-12.736-11.76-23.808-11.76s-15.856 4.416-23.808 11.76c-9.248 8.544-21.92 20.24-45.504 20.24s-36.272-11.696-45.52-20.24c-7.936-7.344-12.736-11.76-23.808-11.76s-15.872 4.432-23.824 11.76c-9.264 8.544-21.92 20.24-45.52 20.24s-36.256-11.696-45.504-20.24c-7.952-7.344-12.736-11.76-23.824-11.76-11.072 0-15.84 4.416-23.792 11.76-9.264 8.544-21.92 20.24-45.504 20.24s-36.24-11.696-45.488-20.256C250.4 708.416 245.6 704 234.56 704c-11.072 0-15.872 4.416-23.808 11.76-9.248 8.544-21.92 20.24-45.504 20.24-23.568 0-36.24-11.696-45.488-20.256C111.84 708.416 107.056 704 96 704a16 16 0 0 1 0-32c23.584 0 36.24 11.696 45.488 20.256 7.92 7.328 12.704 11.744 23.76 11.744 11.072 0 15.84-4.416 23.792-11.76 9.264-8.544 21.92-20.24 45.52-20.24 23.568 0 36.24 11.696 45.488 20.256 7.936 7.328 12.72 11.744 23.776 11.744s15.856-4.416 23.792-11.744C336.864 683.68 349.536 672 373.12 672s36.272 11.696 45.52 20.24c7.952 7.344 12.736 11.76 23.808 11.76s15.872-4.416 23.824-11.76c9.248-8.544 21.92-20.24 45.52-20.24 23.584 0 36.256 11.696 45.52 20.24 7.936 7.344 12.72 11.76 23.808 11.76 11.072 0 15.856-4.416 23.808-11.76 9.248-8.544 21.92-20.24 45.504-20.24s36.256 11.696 45.52 20.24c7.936 7.344 12.72 11.76 23.808 11.76s15.888-4.432 23.84-11.76C752.864 683.696 765.536 672 789.12 672s36.288 11.696 45.552 20.24c7.968 7.328 12.768 11.76 23.888 11.76 11.088 0 15.904-4.432 23.856-11.76C891.712 683.68 904.384 672 928 672a16 16 0 0 1 0 32c-11.104 0-15.92 4.432-23.872 11.76-9.28 8.544-21.952 20.24-45.552 20.24zM719.76 832c-23.584 0-36.272-11.696-45.52-20.24-7.936-7.344-12.736-11.76-23.808-11.76s-15.856 4.416-23.808 11.76c-9.248 8.544-21.92 20.24-45.504 20.24s-36.272-11.696-45.52-20.24c-7.936-7.344-12.736-11.76-23.808-11.76s-15.872 4.432-23.824 11.76c-9.264 8.544-21.92 20.24-45.52 20.24s-36.256-11.696-45.504-20.24c-7.952-7.344-12.736-11.76-23.824-11.76-11.072 0-15.84 4.416-23.792 11.76-9.264 8.544-21.92 20.24-45.504 20.24s-36.24-11.696-45.488-20.256C250.4 804.416 245.6 800 234.56 800a16 16 0 0 1 0-32c23.568 0 36.24 11.696 45.488 20.256 7.936 7.328 12.72 11.744 23.776 11.744s15.856-4.416 23.792-11.744C336.864 779.68 349.536 768 373.12 768s36.272 11.696 45.52 20.24c7.952 7.344 12.736 11.76 23.808 11.76s15.872-4.416 23.824-11.76c9.248-8.544 21.92-20.24 45.52-20.24 23.584 0 36.256 11.696 45.52 20.24 7.936 7.344 12.72 11.76 23.808 11.76 11.072 0 15.856-4.416 23.808-11.76 9.248-8.544 21.92-20.24 45.504-20.24s36.256 11.696 45.52 20.24c7.936 7.344 12.72 11.76 23.808 11.76s15.888-4.432 23.84-11.76C752.864 779.696 765.536 768 789.12 768a16 16 0 0 1 0 32c-11.088 0-15.888 4.432-23.84 11.76-9.28 8.544-21.952 20.24-45.536 20.24zM581.12 928c-23.584 0-36.272-11.696-45.52-20.24-7.936-7.344-12.736-11.76-23.808-11.76s-15.872 4.432-23.824 11.76c-9.264 8.544-21.92 20.24-45.52 20.24s-36.256-11.696-45.504-20.24c-7.952-7.344-12.736-11.76-23.824-11.76a16 16 0 0 1 0-32c23.584 0 36.272 11.696 45.52 20.24 7.952 7.344 12.736 11.76 23.808 11.76s15.872-4.416 23.824-11.76c9.248-8.544 21.92-20.24 45.52-20.24 23.584 0 36.256 11.696 45.52 20.24 7.936 7.344 12.72 11.76 23.808 11.76 11.072 0 15.856-4.416 23.808-11.76 9.248-8.544 21.92-20.24 45.504-20.24a16 16 0 0 1 0 32c-11.072 0-15.856 4.416-23.808 11.76-9.248 8.544-21.92 20.24-45.504 20.24z" fill="#1D1D1D" p-id="17081"></path></svg>